<svg xmlns="http://www.w3.org/2000/svg" xmlns:xlink="http://www.w3.org/1999/xlink" version="1.1" x="0px" y="0px" viewBox="0 0 310.305 313.11" style="enable-background:new 0 0 310.305 250.488;" xml:space="preserve"><g><path d="M165.634,61.005l-1.339-22.765h-3.109l-1.339,22.765c0.953-0.1,1.915-0.165,2.893-0.165S164.681,60.905,165.634,61.005z"/><path d="M128.8,109.087l-24.261-1.814c0.514,4.079,0.893,8.414,1.136,13.012c0.025,0.062,0.044,0.126,0.068,0.188l7.702,1.236   v18.75h-1.948v-3.162c0-0.888-0.72-1.607-1.606-1.607h-3.896c-0.038,4.105-0.16,8.391-0.372,12.83   c0.083,0.013,0.165,0.025,0.251,0.025h4.018c0.887,0,1.606-0.72,1.606-1.606v-3.162h6.696v3.162c0,0.886,0.719,1.606,1.606,1.606   h4.018c0.887,0,1.606-0.72,1.606-1.606v-9.643c0-0.888-0.72-1.607-1.606-1.607H119.8c-0.888,0-1.606,0.72-1.606,1.607v3.162h-1.948   v-18.301l22.298,3.58l0.063-0.194C133.734,121.341,130.319,115.715,128.8,109.087z"/><path d="M112.334,76.518l2.01,3.997l16.908,4.45c0.701-1.691,1.505-3.346,2.404-4.943L112.334,76.518z"/><path d="M310.305,90.904l-3.525,0.83l-4.147,9.434l-105.951,7.919c-1.52,6.628-4.934,12.254-9.806,16.457l0.063,0.194l20.743-3.33   v18.051h-1.949v-3.162c0-0.888-0.719-1.607-1.606-1.607h-4.018c-0.888,0-1.607,0.72-1.607,1.607v9.643   c0,0.886,0.719,1.606,1.607,1.606h4.018c0.888,0,1.606-0.72,1.606-1.606v-3.162h6.695v3.162c0,0.886,0.721,1.606,1.607,1.606h4.018   c0.887,0,1.607-0.72,1.607-1.606v-9.643c0-0.888-0.72-1.607-1.607-1.607h-4.018c-0.887,0-1.607,0.72-1.607,1.607v3.162h-1.947   v-18.5l9.256-1.486c2.103-5.288,7.261-9.041,13.291-9.041c4.406,0,8.351,2.004,10.978,5.146l61.116-9.812L310.305,90.904z"/><path d="M211.139,80.515l2.01-3.997l-21.323,3.504c0.899,1.598,1.702,3.252,2.404,4.943L211.139,80.515z"/><path d="M195.086,101.064c0-18.779-14.482-37.736-32.346-37.736s-32.345,18.957-32.345,37.736   c0,18.287,13.731,29.656,30.945,30.241v2.487v6.666h-1.948v-3.162c0-0.888-0.719-1.607-1.607-1.607h-4.017   c-0.888,0-1.607,0.72-1.607,1.607v9.643c0,0.886,0.719,1.606,1.607,1.606h4.017c0.889,0,1.607-0.72,1.607-1.606v-3.162h6.695v3.162   c0,0.886,0.719,1.606,1.607,1.606h4.018c0.887,0,1.606-0.72,1.606-1.606v-9.643c0-0.888-0.72-1.607-1.606-1.607h-4.018   c-0.889,0-1.607,0.72-1.607,1.607v3.162h-1.947v-6.666v-2.487C181.354,130.721,195.086,119.351,195.086,101.064z M143.006,93.905   l2.146-11.806l9.378,1.705l-2.497,11.74L143.006,93.905z M173.448,95.545l-2.496-11.742l9.373-1.703l2.146,11.806L173.448,95.545z    M167.171,84.49l1.285-0.233l2.496,11.742l-2.693,0.489h-11.036l-2.694-0.489l2.496-11.741l1.279,0.232H167.171z M144.582,118.265   c4.528,2.537,10.985,4.126,18.158,4.126c7.173,0,13.63-1.589,18.158-4.126c-3.47,4.064-10.298,6.831-18.158,6.831   C154.88,125.096,148.052,122.33,144.582,118.265z"/><path d="M221.209,125.738c0,6.526,5.292,11.818,11.818,11.818c6.527,0,11.818-5.292,11.818-11.818   c0-6.527-5.291-11.818-11.818-11.818C226.501,113.92,221.209,119.211,221.209,125.738z M233.029,131.338   c-3.09,0-5.601-2.512-5.601-5.601c0-3.086,2.511-5.598,5.601-5.598c3.086,0,5.598,2.512,5.598,5.598   C238.627,128.826,236.115,131.338,233.029,131.338z"/><path d="M104.743,156.045h202.62v-4H105.44c-0.01,0.17-0.017,0.334-0.026,0.504C105.343,153.766,105.103,154.934,104.743,156.045z"/><path d="M83.702,146.428c-0.071,1.577-0.154,3.19-0.251,4.84c-0.258,4.41,3.109,8.195,7.52,8.452   c0.16,0.009,0.318,0.014,0.477,0.014c4.205,0.001,7.728-3.281,7.978-7.534c0.115-1.974,0.208-3.889,0.289-5.771H83.702z"/><path d="M22.964,236.762v1.363c0,6.83,5.537,12.363,12.363,12.363c6.828,0,12.365-5.533,12.365-12.363v-1.363H22.964z"/><path d="M52.327,238.125c0,6.83,5.537,12.363,12.363,12.363c6.828,0,12.365-5.533,12.365-12.363v-1.363H52.327V238.125z"/><path d="M0.191,143.428h16.012c-0.054-1.477-0.096-2.92-0.126-4.332H0.072C0.102,140.513,0.141,141.954,0.191,143.428z"/><path d="M83.94,139.096c-0.03,1.412-0.072,2.855-0.125,4.332h16.013c0.05-1.473,0.088-2.915,0.117-4.332H83.94z"/><path d="M16.568,151.266c-0.097-1.649-0.181-3.261-0.251-4.838H0.306c0.081,1.884,0.175,3.801,0.29,5.774   c0.25,4.252,3.777,7.532,7.981,7.532c0.157,0,0.314-0.004,0.473-0.014C13.461,159.462,16.828,155.677,16.568,151.266z"/><path d="M77.056,140.125v-18.939V88.167c0.593,1.216,1.19,2.612,1.781,4.239c2.817,7.812,5.188,20.631,5.179,40.638   c0,0.993-0.013,2.023-0.024,3.052h16.002c0.011-1.025,0.024-2.057,0.024-3.052c-0.041-30.182-4.861-46.886-11.436-56.931   c-3.283-4.986-7.127-8.184-10.679-9.954c-3.313-1.673-6.235-2.087-8.054-2.13c-0.174-0.012-0.346-0.026-0.522-0.026h-5.522   c0.807,2.54,1.26,5.482,1.26,8.825c0,7.22-4.658,14.741-8.792,19.998l-2.236-16.473c-1.295,0.486-2.657,0.74-4.021,0.74   c-0.002,0-0.006,0-0.006,0h-0.002c-1.364,0.001-2.729-0.253-4.026-0.739l-2.235,16.47c-4.134-5.256-8.791-12.777-8.791-19.996   c0-3.343,0.454-6.285,1.26-8.825h-5.522c-0.165,0-0.325,0.015-0.487,0.024c-1.815,0.039-4.756,0.449-8.092,2.131   c-5.379,2.666-11.178,8.502-15.236,18.84C2.772,95.379,0.014,110.386,0,133.043c0,0.995,0.014,2.027,0.024,3.053h16.001   c-0.012-1.028-0.024-2.06-0.024-3.053c-0.035-24.215,3.495-37.817,6.963-44.917v33.06v18.939v93.637h24.728v-85.908h4.635v85.908   h24.729V140.125z"/><path d="M53.809,64.176H50.01h-3.801l-1.9,7.5l0.292,0.46c1.564,1.303,3.479,1.956,5.407,1.958   c1.928-0.002,3.847-0.656,5.412-1.962l0.289-0.456L53.809,64.176z"/><path d="M50.01,58.305c3.261,0,6.356-0.699,9.154-1.947c7.862-3.507,13.346-11.387,13.346-20.553c0-2.814-0.521-5.506-1.465-7.988   c0.537-0.558,0.859-1.144,0.94-1.75c2.618,0.092,4.632-0.331,5.521-1.732C80.488,19.631,72.843,0,50.01,0   S19.531,19.631,22.514,24.334c0.889,1.402,2.902,1.824,5.521,1.732c0.081,0.606,0.403,1.192,0.94,1.75   c-0.943,2.482-1.465,5.174-1.465,7.988c0,9.166,5.483,17.046,13.346,20.553C43.653,57.605,46.749,58.305,50.01,58.305z    M50.01,4.094c2.117,0,3.881,1.468,4.36,3.437c2.524-0.352,5.64-0.853,5.64-0.853s-2.919,2.379-5.814,3.541   c-0.652,1.68-2.274,2.875-4.186,2.875c-1.911,0-3.533-1.195-4.186-2.875c-2.896-1.162-5.814-3.541-5.814-3.541   s3.115,0.502,5.64,0.853C46.129,5.562,47.893,4.094,50.01,4.094z M50.01,15.428c12.15,0,22,3.135,22,7   c0,0.574-0.223,1.133-0.633,1.667c-2.352-3.061-11.023-5.333-21.367-5.333c-10.344,0-19.016,2.272-21.367,5.333   c-0.41-0.534-0.633-1.093-0.633-1.667C28.01,18.562,37.859,15.428,50.01,15.428z"/></g></svg>