<svg xmlns:dc="http://purl.org/dc/elements/1.1/" xmlns:cc="http://creativecommons.org/ns#" xmlns:rdf="http://www.w3.org/1999/02/22-rdf-syntax-ns#"
 xmlns:svg="http://www.w3.org/2000/svg" xmlns="http://www.w3.org/2000/svg" viewBox="0 0 32 40" version="1.1" x="0px" y="0px">
 <g transform="translate(0,200)" style="" display="inline">
 <path style="color:#000000;font-style:normal;font-variant:normal;font-weight:normal;font-stretch:normal;font-size:medium;line-height:normal;font-family:sans-serif;font-variant-ligatures:normal;font-variant-position:normal;font-variant-caps:normal;font-variant-numeric:normal;font-variant-alternates:normal;font-variant-east-asian:normal;font-feature-settings:normal;font-variation-settings:normal;text-indent:0;text-align:start;text-decoration:none;text-decoration-line:none;text-decoration-style:solid;text-decoration-color:#000000;letter-spacing:normal;word-spacing:normal;text-transform:none;writing-mode:lr-tb;direction:ltr;text-orientation:mixed;dominant-baseline:auto;baseline-shift:baseline;text-anchor:start;white-space:normal;shape-padding:0;shape-margin:0;inline-size:0;clip-rule:nonzero;display:inline;overflow:visible;visibility:visible;opacity:1;isolation:auto;mix-blend-mode:normal;color-interpolation:sRGB;color-interpolation-filters:linearRGB;solid-color:#000000;solid-opacity:1;vector-effect:none;fill:#000000;fill-opacity:1;fill-rule:nonzero;stroke:none;stroke-linecap:round;stroke-linejoin:round;stroke-miterlimit:4;stroke-dasharray:none;stroke-dashoffset:0;stroke-opacity:1;color-rendering:auto;image-rendering:auto;shape-rendering:auto;text-rendering:auto;enable-background:accumulate;stop-color:#000000;stop-opacity:1" d="m 85,2 c -1.644703,0 -3,1.3553 -3,3 v 22 c 0,1.6447 1.355297,3 3,3 h 22 c 1.6447,0 3,-1.3553 3,-3 V 5 c 0,-1.6447 -1.3553,-3 -3,-3 z m 0,2 h 22 c 0.5713,0 1,0.4287 1,1 v 12.4375 l -3.82812,-4.447266 c -1.32406,-1.454454 -3.20316,-1.500804 -4.365239,-0.04687 l -6.580079,7.308594 -2.335937,-2.818359 C 89.707796,15.969162 87.772214,16.078496 86.632812,17.42188 L 84,20.564453 V 5 C 84,4.4287 84.428703,4 85,4 Z M 102.65625,14.294922 108,20.501953 V 27 c 0,0.5713 -0.4287,1 -1,1 h -7.357422 l -5.126953,-6.189453 6.777345,-7.529297 c 0.43758,-0.462942 1.00338,-0.389611 1.36328,0.01367 z M 97.044922,28 H 85 c -0.571297,0 -1,-0.4287 -1,-1 v -3.324219 l 4.164062,-4.96875 c 0.345084,-0.402192 0.881929,-0.359429 1.185547,0.0039 2.565096,3.096358 5.130208,6.192714 7.695313,9.289069 z" transform="translate(-80,-200)"/>
 <path style="color:#000000;font-style:normal;font-variant:normal;font-weight:normal;font-stretch:normal;font-size:medium;line-height:normal;font-family:sans-serif;font-variant-ligatures:normal;font-variant-position:normal;font-variant-caps:normal;font-variant-numeric:normal;font-variant-alternates:normal;font-variant-east-asian:normal;font-feature-settings:normal;font-variation-settings:normal;text-indent:0;text-align:start;text-decoration:none;text-decoration-line:none;text-decoration-style:solid;text-decoration-color:#000000;letter-spacing:normal;word-spacing:normal;text-transform:none;writing-mode:lr-tb;direction:ltr;text-orientation:mixed;dominant-baseline:auto;baseline-shift:baseline;text-anchor:start;white-space:normal;shape-padding:0;shape-margin:0;inline-size:0;clip-rule:nonzero;display:inline;overflow:visible;visibility:visible;opacity:1;isolation:auto;mix-blend-mode:normal;color-interpolation:sRGB;color-interpolation-filters:linearRGB;solid-color:#000000;solid-opacity:1;vector-effect:none;fill:#000000;fill-opacity:1;fill-rule:nonzero;stroke:none;stroke-linecap:round;stroke-linejoin:round;stroke-miterlimit:4;stroke-dasharray:none;stroke-dashoffset:0;stroke-opacity:1;color-rendering:auto;image-rendering:auto;shape-rendering:auto;text-rendering:auto;enable-background:accumulate;stop-color:#000000;stop-opacity:1" d="m 10,-194 c -2.1972917,0 -4,1.80271 -4,4 0,2.19729 1.8027083,4 4,4 2.197292,0 4,-1.80271 4,-4 0,-2.19729 -1.802708,-4 -4,-4 z m 0,2 c 1.116417,0 2,0.88358 2,2 0,1.11642 -0.883583,2 -2,2 -1.1164168,0 -2,-0.88358 -2,-2 0,-1.11642 0.8835832,-2 2,-2 z"/></g>
 </svg>