<svg xmlns="http://www.w3.org/2000/svg" xmlns:xlink="http://www.w3.org/1999/xlink" version="1.1" x="0px" y="0px" viewBox="0 0 100 125" enable-background="new 0 0 100 100" xml:space="preserve">
<path d="M1.4,32.7c-0.1-1.2,0.3-2.4,1.2-3.2c1.1-0.9,2.9-1.2,4.3,0.3c0.9,1.1,1.4,4.4,1.6,5.3c0.5,3.2,1.1,7.8,1.2,11  c0,0.2,0,0.5,0,0.7c0.1,1.4,0.4,2.7,1,4c3.3,7.1,9.8,16.1,9.8,16.1l0.4,0.5c0.3,0.4,0.8,0.5,1.2,0.3c0.5-0.3,0.6-0.9,0.4-1.3  l-8.7-14.1c-0.9-1.6-0.4-3.8,1.3-4.8c1.7-1,3.9-0.5,4.9,1.1l9,11.6c0.6,0.8,1.7,1.9,2.5,2.4c8.1,5.8,9.2,11.8,9.9,14.8  c0,0,0.1,0.7,0.1,1.7h0l0,0c0,0.8,0,1.8-0.2,2.8l-0.5,9.7c0,0.7-0.6,1.3-1.3,1.3l-15.2-0.1c-0.7,0-1.3-0.6-1.3-1.3l-0.3-8L8.1,66  c-2.1-2.3-3.6-4.8-4-7.9l-0.1-0.9L1.4,32.7z M10.5,31.5c0.3,0.9,0.4,1.7,0.6,2.6c0.5,2.8,1.1,7.8,1.2,10.4c0,0.3,0,0.5,0,0.8  c0.3-0.3,0.6-0.5,1-0.7c0.4-0.3,0.9-0.5,1.4-0.6c0,0,0-0.1,0.1-0.1c-0.3-2.5-1.2-7.3-1.9-9.8C12.5,32.8,11.8,31.9,10.5,31.5z   M15.4,35c0.4,1.8,1.4,5.2,1.7,7l0.2,1.2c0,0.1,0,0.2,0,0.3c0.7,0,1.5,0.2,2.2,0.4c-0.2-1.6-1.3-4.9-1.7-6.4  C17.3,36.3,16.6,35.4,15.4,35z M93.1,29.8c-0.9,1.1-1.4,4.4-1.6,5.3c-0.5,3.2-1.1,7.8-1.2,11c0,0.2,0,0.5,0,0.7  c-0.1,1.4-0.4,2.7-1,4c-3.3,7.1-9.8,16.1-9.8,16.1l-0.4,0.5c-0.3,0.4-0.8,0.5-1.2,0.3c-0.5-0.3-0.6-0.9-0.4-1.3l8.7-14.1  c0.9-1.6,0.4-3.8-1.3-4.8c-1.7-1-3.9-0.5-4.9,1.1l-9,11.6c-0.6,0.8-1.7,1.9-2.5,2.4c-8.1,5.8-9.2,11.8-9.9,14.8c0,0-0.1,0.7-0.1,1.7  v0c0,0.8,0,1.8,0.2,2.8l0.5,9.7c0,0.7,0.6,1.3,1.3,1.3l15.2-0.1c0.7,0,1.3-0.6,1.3-1.3l0.3-8L91.9,66c2.1-2.3,3.6-4.8,4.1-7.9  l0.1-0.9l2.5-24.5c0.1-1.2-0.3-2.4-1.2-3.2C96.2,28.6,94.4,28.3,93.1,29.8z M87.7,45.3c0-0.3,0-0.5,0-0.8c0.1-2.7,0.7-7.6,1.2-10.4  c0.1-0.8,0.3-1.7,0.6-2.6c-1.3,0.4-2,1.3-2.3,2.6c-0.7,2.5-1.5,7.3-1.9,9.8c0,0,0,0.1,0.1,0.1c0.5,0.2,0.9,0.4,1.4,0.6  C87.1,44.7,87.4,45,87.7,45.3z M82.9,42c0.2-1.8,1.3-5.1,1.7-7c-1.2,0.4-1.9,1.3-2.3,2.5c-0.4,1.5-1.5,4.8-1.7,6.4  c0.7-0.3,1.4-0.4,2.2-0.4c0-0.1,0-0.2,0-0.3L82.9,42z M70.4,19.2l-2.9,4.1c1,1.7,1.8,3.5,2.2,5.4l5,0.8c0.9,0.2,1.6,1,1.6,1.9l0,2.5  l0,2.5c0,0.9-0.7,1.7-1.6,1.9l-5,0.8c-0.5,1.9-1.2,3.7-2.2,5.4l2.9,4.1c0.5,0.8,0.4,1.8-0.2,2.5l-1.8,1.8l-1.8,1.8  c-0.7,0.7-1.7,0.7-2.5,0.2l-4.1-2.9c-1.6,1-3.4,1.7-5.2,2.2l-0.8,5c-0.2,0.9-1,1.6-1.9,1.6l-2.5,0l-2.5,0c-0.9,0-1.7-0.7-1.9-1.6  l-0.8-4.9c-1.8-0.5-3.7-1.2-5.4-2.2L35,54.8c-0.8,0.5-1.8,0.4-2.5-0.2l-1.8-1.8L29,51.1c-0.7-0.7-0.7-1.7-0.2-2.5l2.9-4.1  c-1-1.7-1.8-3.5-2.3-5.3l-5-0.8c-0.9-0.2-1.6-1-1.6-1.9l0-2.5l0-2.5c0-0.9,0.7-1.7,1.6-1.9l4.9-0.8c0.5-1.8,1.2-3.7,2.2-5.4  l-2.9-4.1c-0.5-0.8-0.4-1.8,0.2-2.5l1.8-1.8l1.8-1.8c0.7-0.7,1.7-0.7,2.5-0.2l4.1,2.9c1.7-1.1,3.6-1.8,5.5-2.3l0.8-5  c0.2-0.9,1-1.6,1.9-1.6l2.5,0l2.5,0c0.9,0,1.7,0.7,1.9,1.6l0.8,5c1.9,0.5,3.7,1.2,5.4,2.2l4.1-2.9c0.7-0.5,1.8-0.4,2.4,0.2l1.8,1.8  l1.8,1.8C70.9,17.4,70.9,18.4,70.4,19.2z M57.9,25.6C53.4,21,46,21,41.5,25.6C37,30.1,37,37.4,41.5,42c4.5,4.5,11.9,4.5,16.4,0  C62.4,37.4,62.4,30.1,57.9,25.6z M44.9,28.9c-2.7,2.7-2.7,7,0,9.7c2.7,2.7,7,2.7,9.7,0c2.7-2.7,2.7-7,0-9.7  C51.9,26.2,47.5,26.2,44.9,28.9z"/></svg>